<svg width="29" height="24" viewBox="0 0 29 24" fill="none" xmlns="http://www.w3.org/2000/svg">
<path fill-rule="evenodd" clip-rule="evenodd" d="M4.83334 8.1551C2.16396 8.1551 0 6.32952 0 4.07755C0 1.82558 2.16396 0 4.83334 0C7.50272 0 9.66669 1.82558 9.66669 4.07755C9.66669 6.32952 7.50272 8.1551 4.83334 8.1551ZM20.5417 9.17443V12.7255L29.0001 9.66738V22.9531L20.5417 19.895V23.4459H2.18683e-05V9.17443H20.5417ZM26.5835 12.7593V19.8613L20.5418 17.6769V14.9437L26.5835 12.7593ZM2.41674 21.4071V11.2133H18.1251V21.4071H2.41674ZM7.25006 4.0775C7.25006 5.20348 6.16808 6.11627 4.83338 6.11627C3.49869 6.11627 2.41671 5.20348 2.41671 4.0775C2.41671 2.95152 3.49869 2.03873 4.83338 2.03873C6.16808 2.03873 7.25006 2.95152 7.25006 4.0775ZM14.5001 8.15505C12.498 8.15505 10.875 6.78586 10.875 5.09689C10.875 3.40791 12.498 2.03873 14.5001 2.03873C16.5021 2.03873 18.1251 3.40791 18.1251 5.09689C18.1251 6.78586 16.5021 8.15505 14.5001 8.15505ZM15.7084 5.09689C15.7084 5.65988 15.1674 6.11627 14.5001 6.11627C13.8327 6.11627 13.2917 5.65988 13.2917 5.09689C13.2917 4.53389 13.8327 4.0775 14.5001 4.0775C15.1674 4.0775 15.7084 4.53389 15.7084 5.09689Z" fill="#444444"/>
<mask id="mask0_11_18299" style="mask-type:luminance" maskUnits="userSpaceOnUse" x="0" y="0" width="29" height="24">
<path fill-rule="evenodd" clip-rule="evenodd" d="M4.83334 8.1551C2.16396 8.1551 0 6.32952 0 4.07755C0 1.82558 2.16396 0 4.83334 0C7.50272 0 9.66669 1.82558 9.66669 4.07755C9.66669 6.32952 7.50272 8.1551 4.83334 8.1551ZM20.5417 9.17443V12.7255L29.0001 9.66738V22.9531L20.5417 19.895V23.4459H2.18683e-05V9.17443H20.5417ZM26.5835 12.7593V19.8613L20.5418 17.6769V14.9437L26.5835 12.7593ZM2.41674 21.4071V11.2133H18.1251V21.4071H2.41674ZM7.25006 4.0775C7.25006 5.20348 6.16808 6.11627 4.83338 6.11627C3.49869 6.11627 2.41671 5.20348 2.41671 4.0775C2.41671 2.95152 3.49869 2.03873 4.83338 2.03873C6.16808 2.03873 7.25006 2.95152 7.25006 4.0775ZM14.5001 8.15505C12.498 8.15505 10.875 6.78586 10.875 5.09689C10.875 3.40791 12.498 2.03873 14.5001 2.03873C16.5021 2.03873 18.1251 3.40791 18.1251 5.09689C18.1251 6.78586 16.5021 8.15505 14.5001 8.15505ZM15.7084 5.09689C15.7084 5.65988 15.1674 6.11627 14.5001 6.11627C13.8327 6.11627 13.2917 5.65988 13.2917 5.09689C13.2917 4.53389 13.8327 4.0775 14.5001 4.0775C15.1674 4.0775 15.7084 4.53389 15.7084 5.09689Z" fill="white"/>
</mask>
<g mask="url(#mask0_11_18299)">
<rect width="29.0001" height="24.4653" fill="#1F1719"/>
</g>
</svg>
