<svg width="32" height="32" viewBox="0 0 32 32" fill="none" xmlns="http://www.w3.org/2000/svg">
<path fill-rule="evenodd" clip-rule="evenodd" d="M25.3117 8.4298C23.1184 5.67593 19.7229 4.00002 15.9999 4.00002C9.40296 4.00002 3.99992 9.40307 3.99992 16C3.99992 22.597 9.40296 28 15.9999 28C22.5969 28 27.9999 22.597 27.9999 16H30.6666C30.6666 24.0697 24.0696 30.6667 15.9999 30.6667C7.93021 30.6667 1.33325 24.0697 1.33325 16C1.33325 7.93031 7.93021 1.33336 15.9999 1.33336C20.4087 1.33336 24.4549 3.26595 27.1514 6.46771L27.9245 0.766296L30.567 1.1246L29.1424 11.6308L18.5021 10.2121L18.8545 7.56883L25.3117 8.4298Z" fill="#444444"/>
<mask id="mask0_0_4120" style="mask-type:luminance" maskUnits="userSpaceOnUse" x="1" y="0" width="30" height="31">
<path fill-rule="evenodd" clip-rule="evenodd" d="M25.3117 8.4298C23.1184 5.67593 19.7229 4.00002 15.9999 4.00002C9.40296 4.00002 3.99992 9.40307 3.99992 16C3.99992 22.597 9.40296 28 15.9999 28C22.5969 28 27.9999 22.597 27.9999 16H30.6666C30.6666 24.0697 24.0696 30.6667 15.9999 30.6667C7.93021 30.6667 1.33325 24.0697 1.33325 16C1.33325 7.93031 7.93021 1.33336 15.9999 1.33336C20.4087 1.33336 24.4549 3.26595 27.1514 6.46771L27.9245 0.766296L30.567 1.1246L29.1424 11.6308L18.5021 10.2121L18.8545 7.56883L25.3117 8.4298Z" fill="white"/>
</mask>
<g mask="url(#mask0_0_4120)">
<rect width="32" height="32" fill="#979CB1"/>
</g>
</svg>
