<svg width="30" height="32" viewBox="0 0 30 32" fill="none" xmlns="http://www.w3.org/2000/svg">
<path fill-rule="evenodd" clip-rule="evenodd" d="M25.3333 14.6667C25.3333 16.158 25.826 17.1542 26.9998 18.4845C27.082 18.5777 27.1677 18.6732 27.279 18.7961L27.5654 19.112C27.8081 19.3807 27.9788 19.5762 28.1419 19.7765C28.923 20.736 29.3333 21.6068 29.3333 22.6667C29.3333 25.3986 25.6677 27.1238 19.897 27.7426C19.4158 30.2084 17.2998 32 14.6667 32C12.0335 32 9.91758 30.2084 9.43629 27.7426C3.6656 27.1238 0 25.3986 0 22.6667C0 21.6068 0.410361 20.736 1.19147 19.7765C1.35453 19.5762 1.5252 19.3807 1.76788 19.112L2.05435 18.7961C2.16564 18.6732 2.25134 18.5777 2.33355 18.4845C3.50735 17.1542 4 16.158 4 14.6667V10.6667C4 4.73029 8.73029 0 14.6667 0C20.603 0 25.3333 4.73029 25.3333 10.6667V14.6667ZM14.6667 28C15.4788 28 16.2671 27.9839 17.029 27.9519C16.5925 28.7913 15.7235 29.3333 14.6667 29.3333C13.6098 29.3333 12.7408 28.7913 12.3043 27.9519C13.0662 27.9839 13.8546 28 14.6667 28ZM22.6667 10.6667V14.6667C22.6667 16.9198 23.4365 18.4766 25.0002 20.2488C24.9327 20.1723 25.8727 21.213 26.0738 21.4601C26.5039 21.9884 26.6667 22.3337 26.6667 22.6667C26.6667 23.8382 21.8336 25.3333 14.6667 25.3333C7.49971 25.3333 2.66667 23.8382 2.66667 22.6667C2.66667 22.3337 2.82942 21.9884 3.25949 21.4601C3.46065 21.213 4.40068 20.1723 4.33312 20.2488C5.89681 18.4766 6.66667 16.9198 6.66667 14.6667V10.6667C6.66667 6.20305 10.203 2.66667 14.6667 2.66667C19.1303 2.66667 22.6667 6.20305 22.6667 10.6667Z" fill="#444444"/>
<mask id="mask0_0_4131" style="mask-type:luminance" maskUnits="userSpaceOnUse" x="0" y="0" width="30" height="32">
<path fill-rule="evenodd" clip-rule="evenodd" d="M25.3333 14.6667C25.3333 16.158 25.826 17.1542 26.9998 18.4845C27.082 18.5777 27.1677 18.6732 27.279 18.7961L27.5654 19.112C27.8081 19.3807 27.9788 19.5762 28.1419 19.7765C28.923 20.736 29.3333 21.6068 29.3333 22.6667C29.3333 25.3986 25.6677 27.1238 19.897 27.7426C19.4158 30.2084 17.2998 32 14.6667 32C12.0335 32 9.91758 30.2084 9.43629 27.7426C3.6656 27.1238 0 25.3986 0 22.6667C0 21.6068 0.410361 20.736 1.19147 19.7765C1.35453 19.5762 1.5252 19.3807 1.76788 19.112L2.05435 18.7961C2.16564 18.6732 2.25134 18.5777 2.33355 18.4845C3.50735 17.1542 4 16.158 4 14.6667V10.6667C4 4.73029 8.73029 0 14.6667 0C20.603 0 25.3333 4.73029 25.3333 10.6667V14.6667ZM14.6667 28C15.4788 28 16.2671 27.9839 17.029 27.9519C16.5925 28.7913 15.7235 29.3333 14.6667 29.3333C13.6098 29.3333 12.7408 28.7913 12.3043 27.9519C13.0662 27.9839 13.8546 28 14.6667 28ZM22.6667 10.6667V14.6667C22.6667 16.9198 23.4365 18.4766 25.0002 20.2488C24.9327 20.1723 25.8727 21.213 26.0738 21.4601C26.5039 21.9884 26.6667 22.3337 26.6667 22.6667C26.6667 23.8382 21.8336 25.3333 14.6667 25.3333C7.49971 25.3333 2.66667 23.8382 2.66667 22.6667C2.66667 22.3337 2.82942 21.9884 3.25949 21.4601C3.46065 21.213 4.40068 20.1723 4.33312 20.2488C5.89681 18.4766 6.66667 16.9198 6.66667 14.6667V10.6667C6.66667 6.20305 10.203 2.66667 14.6667 2.66667C19.1303 2.66667 22.6667 6.20305 22.6667 10.6667Z" fill="white"/>
</mask>
<g mask="url(#mask0_0_4131)">
<rect x="-1.33325" width="32" height="32" fill="#979CB1"/>
</g>
</svg>
