<svg width="33" height="28" viewBox="0 0 33 28" fill="none" xmlns="http://www.w3.org/2000/svg">
<path fill-rule="evenodd" clip-rule="evenodd" d="M4.12499 3.4404V1.14679H12.375V3.4404H4.12499ZM0 4.58721V26.3765H32.9999V4.58721H0ZM30.2499 6.88081V24.0829H2.74999V6.88081L30.2499 6.88081ZM20.6249 19.4957C22.9031 19.4957 24.7499 17.9553 24.7499 16.0552C24.7499 14.1552 22.9031 12.6148 20.6249 12.6148C18.3468 12.6148 16.4999 14.1552 16.4999 16.0552C16.4999 17.9553 18.3468 19.4957 20.6249 19.4957ZM9.62497 11.468C9.62497 12.1014 9.00936 12.6148 8.24997 12.6148C7.49058 12.6148 6.87498 12.1014 6.87498 11.468C6.87498 10.8347 7.49058 10.3212 8.24997 10.3212C9.00936 10.3212 9.62497 10.8347 9.62497 11.468Z" fill="#444444"/>
<mask id="mask0_11_18298" style="mask-type:luminance" maskUnits="userSpaceOnUse" x="0" y="1" width="33" height="26">
<path fill-rule="evenodd" clip-rule="evenodd" d="M4.12499 3.4404V1.14679H12.375V3.4404H4.12499ZM0 4.58721V26.3765H32.9999V4.58721H0ZM30.2499 6.88081V24.0829H2.74999V6.88081L30.2499 6.88081ZM20.6249 19.4957C22.9031 19.4957 24.7499 17.9553 24.7499 16.0552C24.7499 14.1552 22.9031 12.6148 20.6249 12.6148C18.3468 12.6148 16.4999 14.1552 16.4999 16.0552C16.4999 17.9553 18.3468 19.4957 20.6249 19.4957ZM9.62497 11.468C9.62497 12.1014 9.00936 12.6148 8.24997 12.6148C7.49058 12.6148 6.87498 12.1014 6.87498 11.468C6.87498 10.8347 7.49058 10.3212 8.24997 10.3212C9.00936 10.3212 9.62497 10.8347 9.62497 11.468Z" fill="white"/>
</mask>
<g mask="url(#mask0_11_18298)">
<rect width="32.9999" height="27.5233" fill="#1F1719"/>
</g>
</svg>
