<svg width="24" height="24" viewBox="0 0 24 24" fill="none" xmlns="http://www.w3.org/2000/svg">
<path fill-rule="evenodd" clip-rule="evenodd" d="M0 0H24V24H0V0ZM2 2V22H22V2H2ZM19.4142 8L18 6.58579L10 14.5858L6 10.5858L4.58579 12L10 17.4142L19.4142 8Z" fill="#444444"/>
<mask id="mask0_0_2888" style="mask-type:luminance" maskUnits="userSpaceOnUse" x="0" y="0" width="24" height="24">
<path fill-rule="evenodd" clip-rule="evenodd" d="M0 0H24V24H0V0ZM2 2V22H22V2H2ZM19.4142 8L18 6.58579L10 14.5858L6 10.5858L4.58579 12L10 17.4142L19.4142 8Z" fill="white"/>
</mask>
<g mask="url(#mask0_0_2888)">
<rect width="24" height="24" fill="#E3E3EB"/>
</g>
</svg>
