<svg width="32" height="32" viewBox="0 0 32 32" fill="none" xmlns="http://www.w3.org/2000/svg">
<path fill-rule="evenodd" clip-rule="evenodd" d="M32 6.66665C32 3.72093 29.6124 1.33331 26.6667 1.33331H5.33333C2.38762 1.33331 0 3.72093 0 6.66665V25.3333C0 28.279 2.38762 30.6666 5.33333 30.6666H26.6667C29.6124 30.6666 32 28.279 32 25.3333V6.66665ZM5.33333 3.99998H26.6667C28.1396 3.99998 29.3333 5.19369 29.3333 6.66665V25.3333C29.3333 26.8063 28.1396 28 26.6667 28H5.33333C3.86038 28 2.66667 26.8063 2.66667 25.3333V6.66665C2.66667 5.19369 3.86038 3.99998 5.33333 3.99998ZM18.9296 16L14.6667 18.842V13.158L18.9296 16Z" fill="#444444"/>
<mask id="mask0_0_4146" style="mask-type:luminance" maskUnits="userSpaceOnUse" x="0" y="1" width="32" height="30">
<path fill-rule="evenodd" clip-rule="evenodd" d="M32 6.66665C32 3.72093 29.6124 1.33331 26.6667 1.33331H5.33333C2.38762 1.33331 0 3.72093 0 6.66665V25.3333C0 28.279 2.38762 30.6666 5.33333 30.6666H26.6667C29.6124 30.6666 32 28.279 32 25.3333V6.66665ZM5.33333 3.99998H26.6667C28.1396 3.99998 29.3333 5.19369 29.3333 6.66665V25.3333C29.3333 26.8063 28.1396 28 26.6667 28H5.33333C3.86038 28 2.66667 26.8063 2.66667 25.3333V6.66665C2.66667 5.19369 3.86038 3.99998 5.33333 3.99998ZM18.9296 16L14.6667 18.842V13.158L18.9296 16Z" fill="white"/>
</mask>
<g mask="url(#mask0_0_4146)">
<rect width="32" height="32" fill="#FD687D"/>
</g>
</svg>
