<svg width="32" height="32" viewBox="0 0 32 32" fill="none" xmlns="http://www.w3.org/2000/svg">
<path fill-rule="evenodd" clip-rule="evenodd" d="M15.9999 18.6667C15.4302 18.6667 14.8744 18.6071 14.3383 18.4938C13.7403 21.0137 12.3446 23.0687 9.75489 23.9316C5.90038 25.2164 4.38216 26.4352 4.06542 29.3333H27.9344C27.6177 26.4352 26.0994 25.2164 22.2448 23.9315C19.6543 23.0676 18.2593 21.0137 17.6614 18.4938C17.1254 18.6071 16.5696 18.6667 15.9999 18.6667ZM7.99992 10.6667C7.99992 13.554 9.53015 16.0845 11.8237 17.4912C11.4479 19.3794 10.5282 20.8631 8.91178 21.4017C3.5366 23.1934 1.33325 25.4361 1.33325 30.6667V32H30.6666V30.6667C30.6666 25.4361 28.4632 23.1934 23.0882 21.4018C21.4709 20.8624 20.5517 19.3798 20.1761 17.4912C22.4697 16.0845 23.9999 13.554 23.9999 10.6667V8C23.9999 3.58229 20.4176 0 15.9999 0C11.5822 0 7.99992 3.58229 7.99992 8V10.6667ZM21.3333 10.6667C21.3333 13.6116 18.9449 16 15.9999 16C13.055 16 10.6666 13.6116 10.6666 10.6667V8C10.6666 5.05505 13.055 2.66667 15.9999 2.66667C18.9449 2.66667 21.3333 5.05505 21.3333 8V10.6667Z" fill="#444444"/>
<mask id="mask0_0_4106" style="mask-type:luminance" maskUnits="userSpaceOnUse" x="1" y="0" width="30" height="32">
<path fill-rule="evenodd" clip-rule="evenodd" d="M15.9999 18.6667C15.4302 18.6667 14.8744 18.6071 14.3383 18.4938C13.7403 21.0137 12.3446 23.0687 9.75489 23.9316C5.90038 25.2164 4.38216 26.4352 4.06542 29.3333H27.9344C27.6177 26.4352 26.0994 25.2164 22.2448 23.9315C19.6543 23.0676 18.2593 21.0137 17.6614 18.4938C17.1254 18.6071 16.5696 18.6667 15.9999 18.6667ZM7.99992 10.6667C7.99992 13.554 9.53015 16.0845 11.8237 17.4912C11.4479 19.3794 10.5282 20.8631 8.91178 21.4017C3.5366 23.1934 1.33325 25.4361 1.33325 30.6667V32H30.6666V30.6667C30.6666 25.4361 28.4632 23.1934 23.0882 21.4018C21.4709 20.8624 20.5517 19.3798 20.1761 17.4912C22.4697 16.0845 23.9999 13.554 23.9999 10.6667V8C23.9999 3.58229 20.4176 0 15.9999 0C11.5822 0 7.99992 3.58229 7.99992 8V10.6667ZM21.3333 10.6667C21.3333 13.6116 18.9449 16 15.9999 16C13.055 16 10.6666 13.6116 10.6666 10.6667V8C10.6666 5.05505 13.055 2.66667 15.9999 2.66667C18.9449 2.66667 21.3333 5.05505 21.3333 8V10.6667Z" fill="white"/>
</mask>
<g mask="url(#mask0_0_4106)">
<rect width="32" height="32" fill="#979CB1"/>
</g>
</svg>
