<svg width="28" height="28" viewBox="0 0 28 28" fill="none" xmlns="http://www.w3.org/2000/svg">
<path fill-rule="evenodd" clip-rule="evenodd" d="M3.5 17.5C1.567 17.5 0 15.933 0 14C0 12.067 1.567 10.5 3.5 10.5C5.433 10.5 7 12.067 7 14C7 15.933 5.433 17.5 3.5 17.5ZM10.5 14C10.5 15.933 12.067 17.5 14 17.5C15.933 17.5 17.5 15.933 17.5 14C17.5 12.067 15.933 10.5 14 10.5C12.067 10.5 10.5 12.067 10.5 14ZM15.1667 14C15.1667 14.6443 14.6443 15.166714 15.1667C13.3557 15.1667 12.8333 14.6443 12.8333 14C12.8333 13.3557 13.3557 12.8333 14 12.8333C14.6443 12.8333 15.1667 13.3557 15.1667 14ZM4.66667 14C4.66667 14.6443 4.14433 15.1667 3.5 15.1667C2.85567 15.1667 2.33333 14.6443 2.33333 14C2.33333 13.3557 2.85567 12.8333 3.5 12.8333C4.14433 12.8333 4.66667 13.3557 4.66667 14ZM24.5 17.5C22.567 17.5 21 15.933 21 14C21 12.067 22.567 10.5 24.5 10.5C26.433 10.5 28 12.067 28 14C28 15.933 26.433 17.5 24.5 17.5ZM25.6667 14C25.6667 14.6443 25.1443 15.1667 24.5 15.1667C23.8557 15.1667 23.3333 14.6443 23.3333 14C23.3333 13.3557 23.8557 12.8333 24.5 12.8333C25.1443 12.8333 25.6667 13.3557 25.6667 14Z"  fill="#444444"/>
<mask id="mask0_0_2578"  style="mask-type:luminance"  maskUnits="userSpaceOnUse"  x="0" y="10" width="28" height="8">
<path fill-rule="evenodd" clip-rule="evenodd"  d="M3.5 17.5C1.567 17.5 0 15.933 0 14C0 12.067 1.567 10.5 3.5 10.5C5.433 10.5 7 12.067 7 14C7 15.933 5.433 17.5 3.5 17.5ZM10.5 14C10.5 15.933 12.067 17.5 14 17.5C15.933 17.5 17.5 15.933 17.5 14C17.5 12.067 15.933 10.5 14 10.5C12.067 10.5 10.5 12.067 10.5 14ZM15.1667 14C15.1667 14.6443 14.6443 15.166714 15.1667C13.3557 15.1667 12.8333 14.6443 12.8333 14C12.8333 13.3557 13.3557 12.8333 14 12.8333C14.6443 12.8333 15.1667 13.3557 15.1667 14ZM4.66667 14C4.66667 14.6443 4.14433 15.1667 3.5 15.1667C2.85567 15.1667 2.33333 14.6443 2.33333 14C2.33333 13.3557 2.85567 12.8333 3.5 12.8333C4.14433 12.8333 4.66667 13.3557 4.66667 14ZM24.5 17.5C22.567 17.5 21 15.933 21 14C21 12.067 22.567 10.5 24.5 10.5C26.433 10.5 28 12.067 28 14C28 15.933 26.433 17.5 24.5 17.5ZM25.6667 14C25.6667 14.6443 25.1443 15.1667 24.5 15.1667C23.8557 15.1667 23.3333 14.6443 23.3333 14C23.3333 13.3557 23.8557 12.8333 24.5 12.8333C25.1443 12.8333 25.6667 13.3557 25.6667 14Z" fill="white"/>
</mask>
<g mask="url(#mask0_0_2578)">
<rect width="28" height="28" fill="#979CB1" />
</g>
</svg>